<?xml version="1.0" encoding="utf-8"?>
<!DOCTYPE svg PUBLIC "-//W3C//DTD SVG 1.1//EN" "http://www.w3.org/Graphics/SVG/1.1/DTD/svg11.dtd">
<svg xmlns="http://www.w3.org/2000/svg" xml:space="preserve" width="128" height="128">
  <circle cx="64" cy="64" r="64" fill="#F2CF61"/>
  <path fill="#E6C45C" d="M119.339 96.136c-.056-.14-.12-.269-.176-.407-.017-.045-.028-.095-.044-.141-.061-.167-.141-.313-.204-.474-.017-.046-.028-.095-.044-.142-.061-.168-.141-.313-.205-.478-.016-.044-.027-.095-.043-.138-.061-.168-.141-.313-.205-.476-.016-.046-.027-.095-.043-.14-.061-.167-.141-.313-.204-.475-.017-.045-.028-.096-.044-.142-.061-.167-.141-.313-.204-.474-.016-.047-.028-.096-.044-.143-.061-.168-.141-.313-.205-.477-.016-.045-.027-.092-.043-.137-.061-.168-.14-.313-.205-.477-.016-.046-.027-.095-.043-.14-.061-.167-.14-.313-.205-.476-.016-.047-.027-.096-.043-.141-.06-.167-.14-.313-.203-.475-.017-.045-.029-.094-.045-.142-.06-.166-.14-.313-.203-.474-.017-.047-.029-.096-.045-.143-.06-.168-.14-.313-.205-.477-.016-.045-.025-.092-.043-.137-.06-.168-.14-.313-.205-.476-.016-.047-.025-.096-.043-.141-.06-.167-.14-.313-.203-.476-.017-.045-.027-.094-.045-.141-.06-.166-.14-.313-.203-.474-.017-.046-.027-.095-.045-.142-.06-.168-.14-.313-.205-.478-.016-.044-.025-.093-.043-.138-.06-.166-.14-.313-.205-.475-.016-.047-.025-.096-.043-.141-.06-.167-.14-.313-.203-.475-.016-.045-.027-.095-.045-.142-.061-.17-.142-.317-.207-.481-.016-.043-.024-.088-.041-.131-.061-.169-.141-.314-.204-.479-.017-.045-.027-.092-.044-.137-.061-.168-.141-.313-.204-.477-.017-.045-.027-.095-.043-.14-.062-.167-.142-.313-.205-.476-.017-.046-.027-.095-.043-.14-.062-.168-.142-.313-.204-.476-.018-.045-.025-.096-.044-.141-.062-.168-.142-.313-.204-.475-.018-.046-.025-.096-.044-.141-.062-.168-.142-.314-.205-.478-.017-.045-.026-.093-.043-.138-.062-.168-.142-.313-.205-.477-.017-.045-.026-.094-.043-.139-.062-.168-.142-.313-.204-.475-.016-.047-.025-.097-.044-.142-.062-.168-.142-.313-.204-.475-.016-.046-.025-.095-.044-.142-.062-.168-.14-.313-.205-.477-.016-.045-.026-.094-.043-.139-.06-.166-.14-.313-.205-.476-.016-.045-.026-.094-.043-.139-.06-.168-.14-.313-.202-.476-.018-.045-.027-.096-.045-.141-.061-.168-.141-.313-.203-.475-.018-.047-.027-.096-.045-.141-.061-.169-.141-.314-.205-.478-.017-.046-.026-.093-.043-.138-.061-.168-.141-.313-.205-.477-.017-.045-.026-.094-.043-.139-.061-.168-.141-.313-.205-.477-.017-.046-.026-.095-.043-.14-.061-.168-.141-.313-.203-.476-.018-.045-.027-.094-.045-.141-.061-.168-.141-.314-.205-.477-.017-.045-.026-.094-.043-.139-.061-.166-.141-.313-.205-.476-.017-.045-.026-.094-.043-.14-.061-.168-.14-.313-.205-.476-.016-.046-.026-.095-.043-.14-.06-.168-.139-.313-.203-.475-.016-.047-.027-.096-.045-.142-.059-.167-.139-.313-.203-.475-.016-.046-.027-.095-.044-.142-.06-.168-.14-.313-.205-.477-.017-.045-.027-.094-.043-.137-.06-.168-.14-.313-.205-.477-.017-.046-.026-.095-.043-.14-.062-.17-.142-.318-.208-.482-.016-.043-.025-.089-.041-.132-.061-.167-.141-.313-.204-.474-.017-.048-.028-.097-.044-.142-.061-.169-.141-.313-.205-.479-.016-.045-.027-.092-.043-.137-.061-.166-.141-.313-.205-.476-.016-.046-.027-.096-.043-.141-.061-.166-.141-.313-.205-.476-.016-.046-.027-.095-.043-.14-.061-.167-.141-.313-.204-.474-.016-.047-.028-.096-.044-.143-.061-.168-.141-.313-.205-.478-.016-.043-.027-.093-.043-.138-.061-.166-.14-.313-.205-.475-.016-.046-.027-.096-.043-.141-.06-.166-.14-.313-.205-.475-.016-.046-.025-.095-.043-.14-.06-.167-.14-.313-.203-.474-.017-.047-.027-.096-.045-.142-.06-.168-.14-.313-.205-.478-.016-.045-.025-.092-.043-.137-.06-.167-.14-.313-.205-.475-.016-.046-.025-.096-.043-.141-.06-.166-.14-.313-.205-.475-.016-.046-.025-.095-.043-.14-.06-.167-.14-.313-.203-.474-.016-.047-.027-.096-.045-.142-.06-.167-.14-.313-.203-.474-.016-.047-.027-.096-.045-.142-.06-.168-.139-.313-.203-.477-.018-.045-.027-.093-.045-.138-.059-.166-.139-.313-.203-.475-.018-.046-.027-.095-.043-.14-.061-.167-.141-.313-.205-.476-.018-.046-.027-.095-.043-.14-.061-.167-.141-.313-.204-.474-.017-.047-.028-.096-.044-.142-.061-.168-.141-.313-.205-.477-.018-.044-.026-.093-.043-.138-.061-.166-.141-.313-.205-.475-.018-.046-.026-.095-.043-.14-.061-.167-.141-.313-.205-.476-.018-.046-.025-.095-.043-.14-.061-.167-.141-.313-.204-.474-.017-.047-.026-.096-.044-.142-.061-.168-.141-.313-.205-.477-.016-.045-.025-.093-.043-.138-.061-.166-.141-.313-.205-.475-.016-.046-.025-.095-.043-.14-.061-.171-.143-.319-.208-.483-.015-.043-.024-.088-.041-.131-.06-.167-.14-.313-.203-.475-.017-.045-.026-.094-.045-.141-.06-.168-.14-.313-.205-.477-.016-.044-.026-.094-.043-.137-.06-.168-.14-.313-.205-.476-.016-.046-.026-.095-.043-.14-.06-.167-.14-.313-.204-.475-.017-.047-.027-.096-.044-.141-.06-.167-.14-.313-.202-.475-.019-.047-.029-.096-.045-.141-.061-.167-.141-.313-.203-.475-.019-.045-.029-.094-.045-.141-.061-.166-.141-.313-.205-.475-.017-.045-.026-.094-.043-.139-.061-.167-.141-.314-.205-.476-.017-.045-.026-.093-.043-.138-.061-.167-.14-.313-.203-.475-.019-.045-.028-.094-.045-.14-.061-.167-.14-.313-.205-.476-.017-.045-.026-.093-.043-.138-.06-.167-.14-.313-.203-.475-.019-.045-.028-.094-.045-.14-.183-.513-.394-.997-.627-1.457-.066-.128-.148-.24-.22-.364-.181-.321-.358-.643-.563-.938-.092-.131-.196-.245-.293-.371-.201-.268-.4-.538-.621-.783-.107-.12-.227-.223-.338-.337-.225-.231-.447-.465-.687-.675-.12-.106-.252-.197-.375-.299-.241-.199-.483-.4-.737-.58-.131-.093-.269-.172-.4-.26-.256-.168-.51-.339-.771-.49-.146-.084-.299-.155-.445-.234-.256-.135-.51-.273-.77-.394-.166-.077-.332-.141-.498-.212-.244-.104-.486-.211-.73-.302-.188-.07-.373-.126-.563-.189-.222-.075-.443-.154-.664-.218-.215-.063-.424-.112-.635-.167-.188-.048-.377-.101-.563-.142-.24-.054-.476-.095-.709-.137-.146-.026-.295-.058-.438-.08-.269-.042-.521-.071-.774-.099-.102-.011-.203-.026-.3-.035-.284-.026-.554-.041-.815-.05-.057-.002-.116-.007-.172-.008-.172-.004-.332-.002-.491 0-.128.001-.257.003-.376.009h-.008c-.004 0-.008 0-.013.001-.12.006-.233.015-.349.025-.141.013-.271.028-.396.046-.004 0-.008.001-.01.001-.078.011-.158.021-.229.035-.195.037-.375.078-.523.129 0 0 .01.03.021.074-4.258-4.789-10.457-7.979-17.455-8.496-.104-.008-.205-.015-.309-.022-.562-.035-1.127-.059-1.697-.059-.569 0-1.135.024-1.694.059-.104.007-.208.015-.312.022-6.965.515-13.138 3.678-17.393 8.428 0-.001.002-.007.002-.007-.148-.051-.326-.093-.521-.129-.082-.016-.174-.027-.264-.04-.115-.016-.234-.031-.361-.042-.129-.011-.26-.021-.397-.027-.101-.005-.206-.006-.312-.008-.166-.003-.328-.007-.506-.003h-.002c-4.143.093-11.396 2.19-13.74 8.822-2.916 8.25-1.166 20.25-3 25.25-.67 1.828-.533 3.174-.022 4.146.068.22.149.427.248.614.067.22.149.427.249.615.066.219.148.424.247.61.067.22.149.427.248.614.067.22.149.427.248.613.067.22.149.427.248.613.067.221.149.428.249.617.066.217.148.422.246.609.068.221.149.427.248.615.068.219.149.426.248.612.068.224.15.433.252.621.066.217.147.42.246.606.067.219.148.426.248.613.067.219.148.426.248.613.067.221.148.428.248.616.067.218.148.423.248.61.067.22.148.427.247.614.068.22.149.427.248.613.068.221.149.428.249.616.066.218.148.423.247.611.067.219.149.426.248.613.067.219.149.426.248.613.067.219.149.426.248.613.067.221.149.428.249.617.066.217.148.422.247.61.067.219.149.426.247.613.068.219.15.426.248.614.068.22.149.426.25.615.066.219.147.424.246.611.068.219.149.426.248.613.068.219.149.426.248.613.068.221.149.428.25.616.066.218.147.423.246.61.068.22.149.427.248.613.068.22.149.426.248.613.068.223.15.432.251.621.067.217.148.422.247.609.067.219.148.424.247.611.068.219.149.426.248.612.067.22.149.427.248.615.067.219.149.426.249.614.066.22.148.425.247.611.067.219.149.426.248.613.067.221.149.427.248.615.067.219.149.426.249.615.066.219.148.422.246.61.068.22.149.427.248.613.068.22.149.426.248.614.068.22.149.427.248.613.068.221.149.428.25.615.066.219.147.424.246.611.068.219.149.426.248.613.068.221.149.428.248.614.068.22.149.427.249.615.067.219.148.424.247.61.068.22.149.427.248.615.068.219.148.426.248.613.068.221.148.428.249.615.067.219.147.424.247.611.068.219.148.426.248.613.068.221.15.43.251.62.067.218.147.421.246.607.067.221.149.428.249.616.066.218.148.422.247.61.067.22.149.427.247.614.068.219.149.426.248.613.068.221.149.428.25.615.066.219.147.424.246.611.068.219.149.426.248.614.068.219.149.426.248.612.068.222.149.429.25.617.066.217.147.422.246.609.068.22.149.427.248.615.068.219.149.426.248.613.068.219.149.426.248.613.068.221.148.428.249.616.067.218.147.423.247.61.068.22.148.427.248.613.068.219.148.426.248.614.021.065.051.12.074.183C51.096 127.007 57.432 128 64 128c23.629 0 44.252-12.814 55.339-31.864z"/>
  <path fill="#A67C52" d="M63.979 30.004C49.95 30.004 38.577 40.747 38.577 54v16.496c0 .229.016.443.04.654.295 9.617 6.362 26.846 25.362 26.846 20 0 25.068-17.229 25.363-26.846.024-.211.04-.426.04-.654V54c.001-13.253-11.372-23.996-25.403-23.996z"/>
  <path fill="#A67C52" d="M83.417 38.507c2.667-.917 13.187.323 16.104 8.573 2.916 8.25 1.166 20.25 3 25.25 1.832 5-2.334 6.418-3.834 6.334s-10.5.666-11.166-14.251c-.667-14.917-4.104-25.906-4.104-25.906z"/>
  <path fill="#99724C" d="M102.521 72.33c-1.834-5-.084-17.001-3-25.25-2.875-8.128-13.114-9.447-15.967-8.607 4.144.676 9.562 3.044 11.526 8.607 2.917 8.25 1.167 20.25 3 25.25 1.354 3.695-.565 5.431-2.269 6.053 1.338.301 2.433.258 2.873.281 1.504.084 5.67-1.334 3.837-6.334z"/>
  <path fill="#99724C" d="M63.979 30.004c-.436 0-.867.011-1.299.031C76.107 30.674 86.784 41.159 86.784 54v16.496c0 .229-.017.443-.04.654-.288 9.397-5.146 26.058-24.033 26.81.418.019.835.036 1.268.036 20 0 25.068-17.229 25.363-26.846.024-.211.04-.426.04-.654V54c.001-13.253-11.372-23.996-25.403-23.996z"/>
  <path fill="#99724C" d="M85.736 38.255c-.99-.019-1.805.074-2.319.251 0 0 .009.03.022.074 3.707 4.17 5.941 9.547 5.941 15.419v16.496c0 .229-.016.444-.04.653-.016.506-.048 1.035-.091 1.578.629 1.379 1.379 2.439 2.186 3.25.301-1.728.457-3.365.502-4.828.023-.209.041-.426.041-.653V53.999c.001-6.026-2.357-11.529-6.242-15.744z"/>
  <path fill="#F5F5F5" d="M63.979 30.004c-1.235 0-2.449.088-3.64.249.841 3.831 1.64 8.584 1.64 11.743 0 29.089-14.207 37.783-14.455 49.889 3.879 3.617 9.229 6.111 16.455 6.111 7.318 0 12.632-2.313 16.449-5.71.063-12.317-14.449-20.884-14.449-50.29 0-3.159.799-7.913 1.64-11.743-1.189-.161-2.404-.249-3.64-.249z"/>
  <path fill="#EDEDED" d="M57.052 64.378c0 2.548-2.065 4.618-4.618 4.618-2.554 0-4.619-2.07-4.619-4.618 0-2.558 2.065-4.619 4.619-4.619 2.552 0 4.618 2.061 4.618 4.619z"/>
  <circle cx="52.434" cy="64.378" r="2.31" fill="#242424"/>
  <path fill="#EDEDED" d="M80.146 64.378c0 2.548-2.065 4.618-4.619 4.618-2.553 0-4.618-2.07-4.618-4.618 0-2.558 2.065-4.619 4.618-4.619s4.619 2.061 4.619 4.619z"/>
  <circle cx="75.527" cy="64.378" r="2.31" fill="#242424"/>
  <path fill="#A67C52" d="M44.583 38.507c-2.667-.917-13.187.323-16.104 8.573-2.916 8.25-1.166 20.25-3 25.25-1.832 5 2.334 6.418 3.834 6.334s10.5.666 11.166-14.251c.667-14.917 4.104-25.906 4.104-25.906z"/>
  <path fill="#242424" d="m65.611 87.949 6.93-6.928c.598-.602.82-1.478.582-2.287-.239-.813-.904-1.428-1.732-1.605-6.945-1.484-7.871-1.484-14.82 0-.828.178-1.493.794-1.732 1.605-.238.811-.016 1.688.582 2.287l6.928 6.928c.188.188.405.328.633.438v.711c-2.279.465-4 2.484-4 4.898 0 .553.446 1 1 1 .553 0 1-.447 1-1 0-1.654 1.346-3 3-3 1.653 0 3 1.346 3 3 0 .553.445 1 1 1 .553 0 1-.447 1-1 0-2.414-1.723-4.436-4-4.898v-.709c.224-.112.442-.25.629-.44z"/>
  <path fill="#99724C" d="M38.616 71.15c-.024-.211-.04-.426-.04-.654V54c0-5.904 2.262-11.306 6.005-15.486 0-.001.002-.007.002-.007-.522-.18-1.354-.272-2.364-.25-3.884 4.214-6.24 9.717-6.24 15.743v16.496c0 .229.017.443.041.654.045 1.457.225 3.093.56 4.813.787-.795 1.522-1.833 2.144-3.175-.055-.563-.092-1.113-.108-1.638z"/>
</svg>